[img]http://img.sceper.eu/images/001ctc.jpg[/img]

*******************************************************************************
                    Seeking Justice.2011.Cam.Xvid-SiNiSTER
*******************************************************************************

-------------------------------------------------------------------------------
                              General Information
-------------------------------------------------------------------------------



Format                           : AVI
Format/Info                      : Audio Video Interleave
File size                        : 1.33 GiB
Duration                         : 1h 39mn
Overall bit rate                 : 1 918 Kbps
Writing library                  : VirtualDub build 32839/release

Video
ID                               : 0
Format                           : MPEG-4 Visual
Format profile                   : Advanced Simple@L5
Format settings, BVOP            : Yes
Format settings, QPel            : Yes
Format settings, GMC             : 3 warppoints
Format settings, Matrix          : Default (H.263)
Muxing mode                      : Packed bitstream
Codec ID                         : XVID
Codec ID/Hint                    : XviD
Duration                         : 1h 39mn
Bit rate                         : 1 779 Kbps
Width                            : 720 pixels
Height                           : 256 pixels
Display aspect ratio             : 2.813
Frame rate                       : 29.970 fps
Color space                      : YUV
Chroma subsampling               : 4:2:0
Bit depth                        : 8 bits
Scan type                        : Progressive
Bits/(Pixel*Frame)               : 0.322
Stream size                      : 1.23 GiB (93%)
Writing library                  : XviD 64

Audio
ID                               : 1
Format                           : MPEG Audio
Format version                   : Version 1
Format profile                   : Layer 3
Mode                             : Joint stereo
Mode extension                   : MS Stereo
Codec ID                         : 55
Codec ID/Hint                    : MP3
Duration                         : 1h 39mn
Bit rate mode                    : Constant
Bit rate                         : 128 Kbps
Channel(s)                       : 2 channels
Sampling rate                    : 48.0 KHz
Stream size                      : 90.8 MiB (7%)
Alignment                        : Split accross interleaves
Interleave, duration             : 33 ms (1.00 video frame)




Video Source: FYA.....thanks    
Audio Source: FYA.....thanks


Greets:
DarkScene,HDScene,Noir,CrEwSaDe,blackjesus,ViSiON,HDLiTE,BTVRG,Twentyforty,UnKnOwN,
FLAWL3SS,Rx,Relizlab,MiSTERE,ILLUMiNATI,SAFCuk009,HiVE-CM8..... and everybody else we 
respect.. u know who u are
  
-------------------------------------------------------------------------------
                               Post Information
-------------------------------------------------------------------------------
Encoded by...........: SiNiSTER
 
Have sumthing to offer..looking for suppliers... cammers,cams,screeners, audio
supplier.. and any pre retail DVD/BR any RC...if u can provide any email us at
sinister@hushmail.me
-------------------------------------------------------------------------------
                                 Release Notes
-------------------------------------------------------------------------------

source was what it is.. not the greatest... had to cut into s couple pieces to 
crop, resize, degrained, denoise,slight RGB, adjustment, hue, saturation and 
sharpened it sum differently...then just muxed the Cam audio back to my encode
did what i could with it hear there better source coming so take it or leave it...




-------------------------------------------------------------------------------
                                 ScreenShots
-------------------------------------------------------------------------------

[img]http://sceneunderground.org/static/c738d10f3bae42780066049ce13ac669.png[/img]
[img]http://sceneunderground.org/static/fd8df1d2e3c6993fa93b9a23b4d67b8a.png[/img]
[img]http://sceneunderground.org/static/a43021f9a4d2214c03fa5d4ea9348ee4.png[/img]
[img]http://sceneunderground.org/static/053e00778cae89ebe435d930557a6f9b.png[/img]
[img]http://sceneunderground.org/static/c64545f7a5f6056c0c8307b12c7a1a58.jpg[/img]

-------------------------------------------------------------------------------

[img]http://leetleech.org/images/33506450373550172140.gif[/img]


-------------------------------------------------------------------------------
Generated with Cool NFO Creator - http://fly.to/coolbeans
-------------------------------------------------------------------------------